# xmcd CD database file
#
# Track frame offsets:
#	150
#	16772
#	33607
#	37137
#	54972
#	66415
#	90510
#	116772
#	133887
#	144327
#	161007
#	165917
#	192665
#	209965
#	228435
#	236640
#
# Disc length: 3459 seconds
#
# Revision: 0
# Processed by: cddbd v1.5.2PL0 Copyright (c) Steve Scherf et al.
# Submitted via: CDex 1.51
#
DISCID=e90d8110
DTITLE=Brad Travis - Walk With The Elements
DYEAR=2000
DGENRE=New Age
TTITLE0=Funky Earth Man
TTITLE1=Waves
TTITLE2=The Circle
TTITLE3=Metamorphosis
TTITLE4=Magicland
TTITLE5=Break Free
TTITLE6=This Quest
TTITLE7=Down Here
TTITLE8=The Mystical Other
TTITLE9=Where
TTITLE10=Casihappy
TTITLE11=Give
TTITLE12=The Shadow
TTITLE13=What I Like
TTITLE14=Resonance
TTITLE15=Made New
EXTD=YEAR: 2000
EXTT0=
EXTT1=
EXTT2=
EXTT3=
EXTT4=
EXTT5=
EXTT6=
EXTT7=
EXTT8=
EXTT9=
EXTT10=
EXTT11=
EXTT12=
EXTT13=
EXTT14=
EXTT15=
PLAYORDER=
